<?xml version="1.0" encoding="utf-8"?>
<!-- Generator: Adobe Illustrator 21.0.2, SVG Export Plug-In . SVG Version: 6.00 Build 0)  -->
<svg version="1.1" id="Layer_1" xmlns="http://www.w3.org/2000/svg" xmlns:xlink="http://www.w3.org/1999/xlink" x="0px" y="0px"
	 viewBox="0 0 36 36" style="enable-background:new 0 0 36 36;" xml:space="preserve">
<style type="text/css">
	.st0{fill:#7567F7;}
	.st1{fill-opacity:0;}
</style>
<title>arrow-line</title>
<path class="st0" d="M27.7,15.6L18,6l-9.7,9.6c-0.4,0.3-0.5,1-0.2,1.4c0.3,0.4,1,0.5,1.4,0.2c0.1-0.1,0.1-0.1,0.2-0.2L17,9.8v19.1
	c0,0.6,0.4,1,1,1s1-0.4,1-1V9.8l7.2,7.2c0.4,0.4,1,0.4,1.4,0C28.1,16.6,28.1,16,27.7,15.6L27.7,15.6L27.7,15.6z"/>
<rect class="st1" width="36" height="36"/>
</svg>
