<?xml version="1.0" encoding="UTF-8"?>
<svg width="30px" height="22px" viewBox="0 0 30 22" version="1.1" xmlns="http://www.w3.org/2000/svg" xmlns:xlink="http://www.w3.org/1999/xlink">
    <!-- Generator: Sketch 51.2 (57519) - http://www.bohemiancoding.com/sketch -->
    <title>bars-line</title>
    <desc>Created with Sketch.</desc>
    <defs></defs>
    <g id="Page-1" stroke="none" stroke-width="1" fill="none" fill-rule="evenodd">
        <g id="bars-line" transform="translate(-3.000000, -7.000000)" fill-rule="nonzero">
            <path d="M32,29 L4,29 C3.44771525,29 3,28.5522847 3,28 C3,27.4477153 3.44771525,27 4,27 L32,27 C32.5522847,27 33,27.4477153 33,28 C33,28.5522847 32.5522847,29 32,29 Z" id="Shape" fill="#FFFFFF"></path>
            <path d="M32,19 L4,19 C3.44771525,19 3,18.5522847 3,18 C3,17.4477153 3.44771525,17 4,17 L32,17 C32.5522847,17 33,17.4477153 33,18 C33,18.5522847 32.5522847,19 32,19 Z" id="Shape" fill="#FFFFFF"></path>
            <path d="M32,9 L4,9 C3.44771525,9 3,8.55228475 3,8 C3,7.44771525 3.44771525,7 4,7 L32,7 C32.5522847,7 33,7.44771525 33,8 C33,8.55228475 32.5522847,9 32,9 Z" id="Shape" fill="#FFFFFF"></path>
            <rect id="Rectangle-path" fill-opacity="0" fill="#000000" x="0" y="0" width="36" height="36"></rect>
        </g>
    </g>
</svg>