<?xml version="1.0" encoding="utf-8"?>
<!-- Generator: Adobe Illustrator 21.0.2, SVG Export Plug-In . SVG Version: 6.00 Build 0)  -->
<svg version="1.1" id="Layer_1" xmlns="http://www.w3.org/2000/svg" xmlns:xlink="http://www.w3.org/1999/xlink" x="0px" y="0px"
	 viewBox="0 0 2500 2500" style="enable-background:new 0 0 2500 2500;" xml:space="preserve">
<style type="text/css">
	.st0{fill:#DDDDDD;}
</style>
<g>
	<path class="st0" d="M1957.9,1307.5c-0.5-43.8-10.7-87.1-26.7-127.7c-12.3-31.4-26.6-62.1-40.6-92.8
		c-111.2-242.4-227.9-482.2-350-719.2c-17.2-33.1-34-66.4-52.1-99.1c-17.8-31.8-38.6-62.4-65.4-87.3
		c-42.9-40.9-100.4-65.2-159.4-68.9h-27.2c-60.8,3-120.1,28.5-163.7,71c-25.9,24.5-45.9,54.4-63.2,85.3
		c-17.9,32.1-34.5,64.9-51.3,97.5c-81.9,159.1-161.5,319.3-238.5,480.8c-46,96.6-91.5,193.4-135.3,291
		c-18.2,40.7-34.6,82.7-40.8,127.1c-11.5,74.9,5,153.6,45,217.9c34.5,55.9,86.3,100.9,146.6,126.9c47.2,20.4,98.5,29.4,149.8,26.5
		c68.5-3.6,134.6-28.3,192.6-64.2c64.7-39.7,120-92.5,171.5-147.8c47.9,51.6,99.2,100.9,158.3,139.5
		c57.1,37.6,122.3,64.8,190.8,71.3c74.4,7.8,151.6-10.7,214-52.1c55.3-36.6,98-89.2,122.7-150.7
		C1950.8,1392.7,1958.6,1350.3,1957.9,1307.5L1957.9,1307.5z M1249.4,1278.6c-18.7-22-35.1-45.8-51.7-69.4
		c-27.8-40.8-53.1-83.5-73.5-128.6c-16.7-37.4-30.1-76.7-35.3-117.4c-3.8-32.3-2.9-66.1,9-96.8c10.6-28.8,31-53.8,56.9-70.2
		c61.7-39.8,149.5-35.5,205.4,12.8c28.3,24.1,45.2,59.7,49.4,96.3c5.6,48.7-5.5,97.5-22.5,142.9
		C1355.1,1132.3,1304.3,1207.8,1249.4,1278.6L1249.4,1278.6z M1854.3,1381.8c-16.5,56.9-56.1,106.5-107.9,135.2
		c-45.9,25.7-100.7,34.5-152.5,25.8c-65.9-10.3-125.1-45.2-176.4-86.6c-37.7-30.3-71.6-64.9-104.1-100.5
		c51.3-64.9,99.7-132.8,136.6-207c32.2-65,56.7-135.4,59-208.5c1.3-46.4-7.4-93.6-29.1-134.9c-28.4-55.2-79.2-97.5-137.4-118
		c-54.4-19.4-114.9-21.2-170.4-5.3c-52.4,14.8-100.2,46.3-132.9,89.9c-28.8,38-45.3,84.8-49.1,132.2
		c-5.9,68.3,11.3,136.4,37.1,199.2c38.5,91.7,95,174.8,157.4,251.8c-28.1,32.5-58.7,62.8-91.3,90.8
		c-50.7,42.9-108.6,80.2-174.2,94.4c-53.1,11.9-110.3,6-159-18.6c-57-28.4-100.8-81.9-117.3-143.4c-12.6-45.2-9.8-94,5.2-138.2
		c12.5-36.6,29.4-71.5,45.3-106.8c110-239.8,225.4-477,346.1-711.6c18-34.9,35.7-70,54.8-104.3c15.6-27.7,33.6-54.8,59.2-74.2
		c27.6-21.5,61.8-32.9,96.9-32.3c36-0.4,71.8,12.8,99.3,36c27.2,22.6,45.6,53.5,62.1,84.3c37.3,70.1,73.1,140.9,109,211.7
		c102.3,202.4,200.6,406.9,294.8,613.2c14.2,32.1,29.5,63.8,39.1,97.7C1866,1295.1,1866.4,1340.2,1854.3,1381.8L1854.3,1381.8z
		 M715.6,1825.5c30.8-7,64.5,13.3,72.5,43.9c9.9,31.3-9.8,67.7-41.3,76.7c-30.7,10.8-67.2-8-77.4-38.6c-9.7-25.8,0.7-57,23.6-72.3
		C699.8,1830.5,707.5,1827.2,715.6,1825.5z M923.6,2027.4c18.5-20.2,44.7-32.8,71.6-36.8c18-1.8,36.1-0.6,53.7,3.4
		c-0.2,28.4,0,56.7-0.1,85.1c-27.6-7.1-57.5-8.6-84.6,1.4c-14.7,5.4-28,14.1-38.8,25.5c-2.3,2-1.8,5.2-2,8
		c0.2,79.3-0.1,158.6,0.1,237.9c-0.3,3.1,0.5,6.5-0.9,9.4c-30.6,0.7-61.3,0.1-91.9,0.2c0-120.9-0.1-241.9,0.1-362.8
		c25.8,0.1,51.6-0.1,77.4,0c5.7-0.3,11.7,2.6,13.8,8.1C924.1,2013.5,923.5,2020.6,923.6,2027.4z M1584,2027.8
		c24.5-25.4,60-37.8,94.9-37.9c36.8-0.9,74.6,10,103.1,33.9c18.9,14.8,32.6,35.4,38.9,58.6c8.1,28.3,7.4,57.9,7.3,87.1
		c0,64,0,128.1,0,192.2c-30.9,0-61.8,0.2-92.7-0.1c0-64,0-128,0-192.1c0-23.8,1.1-49.4-11.5-70.6c-8.8-15.2-26.3-22.8-43.1-24.5
		c-32-5.1-65.5,7.6-87.5,31c-2.4,2.3-4.4,5.3-4.1,8.9c-0.3,9.9,1.2,19.8,0.4,29.8c-1.2,13.5,0.7,26.9,0.2,40.4
		c-0.4,25.5-0.4,50.9-0.1,76.4c-1.8,33.7,1.3,67.4-0.7,101.1c-30.8-0.1-61.5,0-92.3,0c0-121-0.2-241.9,0.1-362.9
		c23.8,0.2,47.6,0,71.4,0.1c6.2-0.4,12.9,3.1,14.5,9.3C1584.2,2014.5,1583.8,2021.2,1584,2027.8L1584,2027.8z M681.7,2361.6
		c0-121-0.2-241.9,0.1-362.9c30.6,0.1,61.3,0,91.9,0c0.2,120.9,0.1,241.9,0.1,362.8C743.1,2361.5,712.4,2361.5,681.7,2361.6z
		 M624.7,1998.7c-24.3-0.1-48.6,0.1-72.9-0.1c-6.4,0-14.6,0.3-17.8,7c-2.8,6.9-1.7,14.6-2,21.9c-20.2-21.5-48.7-34.3-77.9-37.1
		c-45.1-4.1-91.9,8.5-128.1,35.9c-29.9,22.1-51.9,53.9-63.5,89.1c-5.6,16.5-8.3,33.7-10.1,51v24.8c2.6,52,25.7,103.4,66.1,136.9
		c30.4,25.8,69.5,40.2,109.1,42.7h20.7c31.4-2.1,62.4-15.1,83.8-38.5c0.2,7.3-0.8,15.1,1.9,22.1c2.9,5.7,9.6,7.2,15.5,7
		c25.1-0.1,50.2,0,75.2-0.1C624.7,2240.5,624.8,2119.6,624.7,1998.7L624.7,1998.7z M529.2,2248.5c-18.8,22.4-48,35.7-77.3,34.8
		c-31.4,0.2-63.9-11.8-84.2-36.4c-19.8-23.5-25.8-56.1-21.3-86c3.4-24.2,15.7-47.3,35.1-62.3c17.6-13.9,39.9-21.1,62.1-22.6
		c33.2-2.9,68.1,11.7,88.1,38.5c1.1,39.4,0,78.9,0.5,118.4C531.9,2238.2,533.4,2244.4,529.2,2248.5L529.2,2248.5z M1443.9,2102.5
		c-14.3-34.9-39.6-65.3-71.7-85.1c-33.1-20.6-72.7-29.9-111.5-27.2c-30.6,2-60.5,15.1-81.8,37.4c-0.1-67.8,0-135.5-0.1-203.2
		c-30.9,0-61.8-0.1-92.7,0.1c0.2,179-0.3,358,0.2,537c25.6,0.1,51.2,0.1,76.8,0.1c6.4,0.5,13.2-3,15-9.4c1.3-6.6,0.8-13.3,0.8-19.9
		c21.5,23.9,53,36.9,84.8,38.8h18.9c51.4-2.6,101.7-26.6,134-67C1461.8,2248.5,1470.6,2168,1443.9,2102.5L1443.9,2102.5z
		 M1335.8,2255.2c-20.7,19.2-49.3,28.4-77.3,28.2c-29.2,0.7-58.3-12.7-76.8-35.3c-2.3-2.3-3-5.5-2.8-8.6c0-41.5,0.1-83,0-124.5
		c17.8-23.1,46.2-37.6,75.2-39.1c29.5-0.9,60.4,7.8,82,28.6c20.6,19.1,30.7,47.8,30,75.5C1366.6,2207.6,1356.3,2236.1,1335.8,2255.2
		z M2206.3,2057.6c-39.3-50-106.5-75.3-169.1-65.9c-26.2,4.1-51,16.7-69.2,35.9c-0.2-67.7,0-135.4-0.1-203.2
		c-30.8,0-61.7-0.1-92.5,0c0,179,0,358,0,537c24.3,0.2,48.7,0,73,0.2c6.4,0.1,14.4-0.4,17.7-6.9c2.8-7,1.8-14.9,2-22.3
		c21.3,23.4,52.2,36.2,83.4,38.5h20.8c50.8-2.8,100.5-26.5,132.6-66.2c26.3-31.7,40.4-72.3,42.8-113.2v-24.3
		C2244.7,2127.8,2231.4,2088.6,2206.3,2057.6L2206.3,2057.6z M2134.1,2244.8c-24.5,31.5-67.6,43.2-105.9,37.1
		c-23.3-4.6-45.9-17.2-59.7-36.9c-1.5-15.2-0.1-30.7-0.6-46c0.3-28.2-0.7-56.4,0.5-84.5c14-19.3,36.5-31.7,59.6-36.9
		c42.8-7.9,92.4,9,114.1,48.5C2161.6,2162.7,2159.7,2211.5,2134.1,2244.8L2134.1,2244.8z"/>
</g>
</svg>
