<?xml version="1.0" encoding="utf-8"?>
<!-- Generator: Adobe Illustrator 21.0.2, SVG Export Plug-In . SVG Version: 6.00 Build 0)  -->
<svg version="1.1" id="Layer_1" xmlns="http://www.w3.org/2000/svg" xmlns:xlink="http://www.w3.org/1999/xlink" x="0px" y="0px"
	 viewBox="0 0 2500 317" style="enable-background:new 0 0 2500 317;" xml:space="preserve">
<style type="text/css">
	.st0{fill:#DDDDDD;}
</style>
<path class="st0" d="M678.7,166.1c-43.3,0-64.9,31.9-64.9,74.9c0,44.8,20.7,76,64.9,76c44.2,0,64.8-31.3,64.8-76
	C743.5,197.9,722,166.1,678.7,166.1 M678.7,287.7c-11.5,0-16.6-10.3-16.6-46.8c0-33.3,3.4-45.6,16.6-45.6
	c13.2,0,16.6,12.3,16.6,45.6C695.3,277.4,690.2,287.7,678.7,287.7 M773.5,153.8v16.1h-19v32.7h19v111.3H820V202.6h25.3v-32.7H820
	v-14.6c0-8.8,4.4-13.5,16.7-13.5c2.6,0,6,0.6,8.6,1.2v-35.6c-7.5-0.9-14.4-1.7-23.5-1.7C791,105.6,773.5,118.5,773.5,153.8
	 M277.9,210.3c0-31.8-29-43.9-56.8-43.9c-26.4,0-52.2,11.4-57.4,39.8l40.4,8.3c0.5-8.4,4.1-18.9,15.2-18.9c8,0,12,5.7,12,14.3v12.4
	c-30.7,3.6-73,14.6-74,52.1c-0.7,26.5,17,42.1,40.1,42.1c13.7,0,27.4-7.6,35.4-15.9c0.3,2.4,0.6,9.2,1.5,13.2h47.9
	c-1.8-2-4.3-6.9-4.3-23.2L277.9,210.3L277.9,210.3z M231.5,277.2c-4,5.2-9.6,8.9-14.9,8.9c-8.3,0-13.5-5.2-13.5-15.3
	c0-18.4,12.2-24.5,28.4-26.1L231.5,277.2z M391.9,166.4c-18.1,0-30.9,8.4-40.5,18.2h-0.6l-0.2-14.7h-45.5v144h46.5v-103
	c4.2-5.4,9.9-8.9,15.1-8.9c7.8,0,10.7,4.6,10.7,12.8v99.1h46.5V200C423.9,180.2,412.3,166.4,391.9,166.4 M580.3,169.9H534
	l-34.2,43.5h-0.6V109.6h-46.5v204.3h46.5v-51.6l9.8-11.2h0.6l22.7,62.8h48.2l-39.1-99.7L580.3,169.9z M107.9,207.6V206
	c14.8-5.8,33.3-19.8,33.3-46.5c0-28.2-23.8-49.9-60-49.9H0.5v204.3h78.7c38.8,0,66.9-19.7,66.9-54.6
	C146,233.1,130,214.9,107.9,207.6 M50.7,145.8h18.1c11.7,0,24.9,3.2,24.9,22.6c0,12.1-7.4,22.1-26,22.1H50.7V145.8z M69.6,276H50.7
	v-51.1h18.9c16.6,0,26,10.1,26,25.3C95.6,271.1,80.8,276,69.6,276 M1833.8,290.7v-80.3c0-31.8-28.9-43.9-56.8-43.9
	c-26.4,0-52.2,11.4-57.4,39.8l40.5,8.3c0.5-8.4,4-18.9,15.2-18.9c8,0,12,5.7,12,14.3v12.4c-30.7,3.6-73.1,14.6-74.1,52.1
	c-0.7,26.5,16.9,42.1,40.1,42.1c13.7,0,27.4-7.6,35.4-15.9c0.2,2.4,0.6,9.2,1.4,13.2h47.9C1836.4,311.9,1833.8,307,1833.8,290.7
	 M1787.3,277.2c-4,5.2-9.7,8.9-14.9,8.9c-8.3,0-13.5-5.2-13.5-15.3c0-18.4,12.2-24.5,28.4-26.1L1787.3,277.2z M1327,166.1
	c-42.8,0-64,34.4-64,75.2c0,39.9,20.1,75.8,64.6,75.8c25.7,0.8,49-15.1,57.7-39.3l-31.3-11.5c-2.3,11.6-11.8,19.8-23,19.8
	c-18.7,0-22.1-21.3-21.5-34.1h77.8v-9.8C1387.3,204.5,1371.8,166.1,1327,166.1 M1344.2,224.3h-34.7c-0.7-13.6,4-29,17.2-29
	C1342.8,195.3,1344.7,210.9,1344.2,224.3 M1512.6,169.9h46.5v144h-46.5V169.9z M1512.6,109.6h46.5v41.3h-46.5V109.6z M1646.4,195.3
	c7.5,0,11.2,4,13.5,9.7c2,5.5,2.3,12.3,2.3,18.1h39.6c0-14.3-7.5-57.1-56.8-57.1c-43.9,0-65.7,39.3-65.7,78.6
	c0,35.6,21.8,72.3,63.7,72.3c33.9,0,53.9-18.3,57.4-53.4l-36.2-5.2c0,10.9-1.4,27.5-17.8,27.5c-12,0-17.2-10.6-17.2-43
	C1629.2,214.3,1631,195.3,1646.4,195.3 M926,109.6l-47.9,204.3h44.8l8.9-41.3h47.3l8,41.3h50.2l-43.6-204.3H926L926,109.6z
	 M939,236.4l17.3-83.2h1l14.7,83.2H939z M1452.6,189.4h-0.8l-0.5-19.5h-45v144h46.5v-93.3c5.4-6.5,13.6-11.1,25.5-11.1
	c8,0,13.7,1.9,19,4v-47C1479.4,166.4,1462.1,174.2,1452.6,189.4 M1210.4,166.4c-19.5,0-33.3,10.5-41.5,19.3h-0.6
	c-4.4-11.1-13.8-19.3-27.9-19.3c-17.3,0-31.9,8.9-41.6,18.1h-0.6l-0.2-14.7h-45.4v144h45.6V211.2c3.9-5.3,10.9-8.9,15.8-8.9
	c8.6,0,10.9,5.2,10.9,12.9v98.7h45.6V211.2c3-4,9.7-8.9,15.9-8.9c8.5,0,10.8,5.2,10.8,12.9v98.7h45.6V199.1
	C1242.8,179.2,1229.7,166.4,1210.4,166.4 M2119.5,77.3c18.4,7.3,36.7,15.1,54.7,23.4c-57.2,23.2-112.5,50.7-165.4,82.4
	c-17.9-9.4-36-18.2-54.4-26.5C2007.2,125.7,2062.4,99.2,2119.5,77.3 M2051.3,53.2c-59.3,18.8-116.6,43.4-171,73.4
	c17.3,6.3,34.5,12.9,51.4,20.1c52.8-31,108.3-57,166-77.7C2082.3,63.3,2066.9,58.1,2051.3,53.2"/>
<path class="st0" d="M2243.7,74.9c-46.8-22.7-95.4-41.7-145.2-56.8c-17.6,5.1-35,10.6-52.2,16.6c51.3,15.2,101.2,34.4,149.4,57.5
	C2211.7,86.1,2227.6,80.3,2243.7,74.9 M2320,52.2c-48-20.9-97.4-38.4-147.8-52.2c-16.1,3.3-32.1,7-48,11.1
	c50,14.6,98.9,33.1,146.1,55.3C2286.7,61.3,2303.3,56.6,2320,52.2 M2442.4,93.3c-119,40.1-231.6,97.5-334.1,170.2
	c25.4,15.6,50.2,32.2,74.4,49.6c96.6-76.6,203.1-139.7,316.8-187.5C2480.8,114.3,2461.8,103.6,2442.4,93.3 M2359.9,54.1
	c-123.7,32.8-241.1,85.6-347.7,156.3c23.8,11.7,47.2,24.2,70.1,37.5c104.4-72.3,219.6-127.8,341.3-164.4
	C2402.7,73.1,2381.4,63.3,2359.9,54.1 M2221.9,300.3c0-7.2,6-13,13.5-13c7.4,0,13.5,5.8,13.5,13c0,7.3-6,13.2-13.5,13.2
	C2227.9,313.4,2221.9,307.6,2221.9,300.3 M2224.4,300.3c0,6,4.9,10.6,10.9,10.6c6,0,10.9-4.6,10.9-10.6c0-5.8-4.9-10.4-10.9-10.4
	C2229.3,289.8,2224.4,294.5,2224.4,300.3"/>
<path class="st0" d="M2242.1,307.6h-2.5l-4.3-6.7h-2.7v6.7h-2.2V293h6.6c1.3-0.1,2.6,0.2,3.7,0.7c1.1,0.7,1.7,1.9,1.7,3.2
	c0,2.8-2.1,3.9-4.8,4L2242.1,307.6z M2235.1,299.1c2.1,0,5,0.4,5-2.3c0-1.9-1.7-2.2-3.6-2.2h-3.9v4.4L2235.1,299.1L2235.1,299.1z"/>
</svg>
