<?xml version="1.0" encoding="utf-8"?>
<!-- Generator: Adobe Illustrator 21.0.2, SVG Export Plug-In . SVG Version: 6.00 Build 0)  -->
<svg version="1.1" id="Layer_1" xmlns="http://www.w3.org/2000/svg" xmlns:xlink="http://www.w3.org/1999/xlink" x="0px" y="0px"
	 viewBox="0 0 2461 2500" style="enable-background:new 0 0 2461 2500;" xml:space="preserve">
<style type="text/css">
	.st0{fill:#DDDDDD;}
	.st1{fill:#FFFFFF;}
	.st2{fill:none;}
</style>
<path class="st0" d="M31.3,1240.5C31.3,575.4,570.5,36.2,1235.6,36.2c665.1,0,1204.3,539.2,1204.3,1204.3
	c0,665.1-539.2,1204.3-1204.3,1204.3C570.5,2444.8,31.3,1905.6,31.3,1240.5"/>
<path class="st1" d="M66.8,1240.5C66.8,595,590.1,71.7,1235.6,71.7c645.5,0,1168.8,523.3,1168.8,1168.8
	c0,645.5-523.3,1168.8-1168.8,1168.8C590.1,2409.2,66.8,1885.9,66.8,1240.5"/>
<path class="st0" d="M104.9,1240.5c0-624.4,506.2-1130.7,1130.7-1130.7c624.5,0,1130.7,506.2,1130.7,1130.7
	c0,624.5-506.3,1130.7-1130.7,1130.7C611.1,2371.2,104.9,1864.9,104.9,1240.5"/>
<path class="st1" d="M536.7,1235.7c0-384.6,311.8-696.3,696.3-696.3s696.3,311.8,696.3,696.3c0,384.5-311.7,696.3-696.3,696.3
	S536.7,1620.2,536.7,1235.7 M1343.1,209.3c19.1,17.1,24.5,39.6,23.5,64.6c-5.4,17.6-15.2,34.8-30.9,47
	c19.1,14.2,38.2,28.9,41.1,54.3c5.4,25-2,47.5-16.2,66.1c-29.8,33.7-77.3,25-120.4,26.4l-113.8,3l-0.8-10.3L1114,202l-0.5-5.6
	C1188.4,195.9,1276.5,176.5,1343.1,209.3 M1555,245.8c-20.1,58-46.5,115.3-60.7,176.4c-1.7,16.3,9,31.4,25,35.3
	c12,6.6,29.1,7.9,38.2,0c38.7-54.3,57-121.9,81.3-182.8c30.8,10.8,54.8,26.2,84.7,37.5c-31.9,67.6-51.4,147.1-95.5,202.6
	c-31.8,27.9-82.2,21-120.4,11.7c-43.6-15.6-91-43.5-104.3-92.5c-10.3-33.5,36.2-148.5,61.7-217.3L1555,245.8"/>
<path class="st1" d="M849.7,567.6l-64.6,42.5c-24.1-12.7-38.2-21.3-55.8-29.3L657.8,641c7.4,17.6,16.7,39.2,24.6,58.7l-63.9,71.4
	l-5.1-11.3L500.3,491.2l103.3-88.8l8.3,5.2c81,49.5,164.3,107.8,246.4,154.5L849.7,567.6 M865.9,557.8
	c-33.9-82.7-75.5-179.4-106.2-256.9c77.8-31.3,190.4-108.4,259.9-36.7c17.6,19.6,20.1,47,20.5,71.9c-4.4,16.1-8.3,32.3-19.1,45.5
	c23.2,28.6,66.4,61,96.2,89.4l-3.7,1.2l-88.1,19.4c-31.3-25.2-49.1-43-76.3-61.7c-11.8,1.4-19.8,8.3-30.9,13.2l30.3,69.5
	L865.9,557.8"/>
<path class="st0" d="M1266.7,254.8c6.8,7.3,5.4,22.5,1.4,30.8c-12.7,14.7-36.2,14.2-55.8,11.7c1.4-16.6-4.7-32.8-3.5-49.9
	C1225.6,249.9,1254.5,241.6,1266.7,254.8 M943.7,322.4c4.8,12.2,5.1,32.2-5.3,39.4L890,382.3c-12.1-22.2-17.2-37.5-25.5-55.5
	C887,318.5,925.6,284.7,943.7,322.4 M1282.9,366.4c3.9,17.2-3.9,34.8-20.6,38.2c-15.7,2.4-27.4,1-44,1.4
	c-2.5-17.6-3.9-41.1-2.5-55.8C1238.3,353.2,1272.1,341,1282.9,366.4"/>
<path class="st1" d="M1943.5,461.9c16.7,20.5,28,46,35.3,71.9c-20.6,11-36.2,23.5-55.8,32.3c-4.8-30.3-21.5-61.2-51.4-76.3
	c-14.2-8.3-35.3-9.8-51.4-4.4c-25,9.3-46.5,30.8-55.8,55.8c-8.3,24,1,47.5,14.7,66c19.1,21.5,44.6,32.8,73.3,33.8
	c-12.9,21.3-20,34.7-32.3,51.4c-48-6.9-93-33.3-120.4-77.8c-23.5-37.7-24.9-95.4-4.4-135.1c21.5-43.6,64.1-71.5,110.1-77.8
	C1860.9,399.7,1910.8,421.7,1943.5,461.9"/>
<path class="st0" d="M672.1,544.1c-13.8,12.8-28.5,24.5-44,35.2c-11.8-27.9-23-52.9-35.3-83.7C620.9,510.6,645.6,527.9,672.1,544.1"
	/>
<path class="st1" d="M2090.4,635.1c-22.5,22.5-52.3,41.6-76.4,63.1c38.2,8.3,81.2,6.8,120.4,13.2c17.6,25.5,26.9,49.9,44.1,80.8
	L2034.6,782c-31.8,49.9-60.7,100.8-88.1,152.7c-17.1-25-30.3-57.2-47-85.1c18.6-37.7,42.8-77.6,61.5-115.3
	c-32,19.8-60.2,45.5-92.8,66.1l-50.8-68.3c68.5-58.7,142.4-111.1,214.4-164.4l5.8-2.1L2090.4,635.1 M474.8,617
	c-13,26.9-30.1,45.3-42.1,70.9l167.4,110.1c-8.8,24.9-27.9,49.5-44.1,73.4L384.3,764.3c-15.4,20.3-26.4,41.1-41.9,67.1
	c-22.5-14.9-38.4-24.7-56.5-37.6c42.6-71,83-137.6,129.9-211.2L474.8,617"/>
<path class="st0" d="M945.7,1271.6c0.3,11.6-0.9,23.2-3.5,34.5c-25.9,52.4-68,98.3-74.8,158.6c-29.8,19-54.4,52.3-96.9,41.1
	c-1.5,11.2,1.9,28.3,5.8,41.1c-33.7-1.4-56.8,23.5-85.2,35.3c-15.2-4.9-19.1-24.5-24.9-38.2c33.2-11.2,57.2-44.5,95.4-44
	c4.4-12.3-2.5-23.5-4.4-35.3c-47.5-21.1-122.8,104.2-129.2-4.4c47.5-2.9,77.8-47,124.8-51.4l1.4-35.3c-53.3-5.4-87.6,49.4-140.9,44
	l-11.8-47c61.7,3.9,98.4-51.4,157.1-54.4c7.8-10.3,8.8-25.4,10.3-39.6c-64.1-8.3-108.2,62.7-176.2,41.1c0,0-2.3-29.6-3.6-46.2
	L945.7,1271.6"/>
<path class="st0" d="M1020.9,1271.6c2.2,26.1-4.2,52.1-28.8,78.6c-35.3,41.5-70.9,93.9-45.5,149.8c26.9,61.6,111.6,109.6,74.9,186.4
	c-20,48.5-68,85.2-66.1,142.4c-12.7-5.4-25.9-10.8-36.7-20.5c0-72.9,103.7-118.4,54.3-195.3c-4.4,15.2-5.3,35.7-8.8,52.9
	c-17.2,44.5-53.8,80.2-67.6,126.3c-23-8.9-47-27.5-66.1-47l26.5-16.2c-2.9-9.8-10.8-18.1-17.6-26.4c-17.2-2.4-28.4,8.8-42.6,13.2
	c-12.2-10.8-24-20.6-33.8-33.8c8.8-25,77.3-4.4,42.6-45.5c-23.5-14.7-47,6.4-67.5,16.2l-27.9-35.3c24-14.7,47.9-35.3,77.8-29.4
	c7.4,13.2,7.9,32.8,22,39.7c50.4-1,86.1-39.2,124.8-69c-27-40.1-48.9-95.4-25-143.9c19.2-48.6,69.2-89.4,71.4-143.1L1020.9,1271.6"
	/>
<path class="st0" d="M1092.7,1271.6c2.5,22.4-1.2,45.4-16.8,69.7c-31.8,43.1-73.4,88.6-54.3,145.4c18.1,57.3,89.6,92,85.2,158.6
	c-0.5,78.8-92,127.7-66.1,215.8l-45.5-14.7c-18.1-78.3,65.1-118.4,66.1-190.8c11.8-83.2-94.5-114.1-88.1-195.3
	c-0.4-61.7,53.9-100.8,77.8-152.7c3.8-11.6,5.5-23.8,4.9-36H1092.7"/>
<path class="st0" d="M1344.3,1271.6c-3,20.4,0.7,41.3,10.6,59.5c31.8,50.4,87.6,103.8,52.8,168.9c-36.7,53.8-97.8,106.2-73.4,176.1
	c26.9,61.2,83.2,119.4,52.8,195.3l-45.5,10.3c36.2-73.9-18.1-147.3-49.9-211.4c-38.7-92,83.2-136.1,85.1-220.2
	c-0.5-54.3-58.2-85.1-70.4-135.1c-25-21.1-50.9,8.3-80.8,2.9c-22,4.4-55.8-30.3-69,7.4c-15.7,55.3-87.2,95.9-55.8,161.5
	c29.9,58.3,101.8,100.8,77.8,176.2c-21.5,70.4-92.5,137.5-48.4,218.7c-18.1-5.8-51.9,5.4-51.4-23.5c-27.9-98.4,91-155.6,54.3-254
	c-17.1-60.2-94.9-93.5-77.8-166c12.7-59.6,79.5-101.3,70.1-166.6L1344.3,1271.6"/>
<path class="st0" d="M1415,1271.6c-0.9,16.7,2.4,33.4,13.2,49.2c33.8,54.8,92.5,115,58.7,186.5c-38.2,57.2-104.7,115.5-67.6,190.9
	c26.9,45,68.6,90,57.3,145.4l-44.1,14.7c29.4-103.2-114.5-164-54.3-267.2c37.2-55.3,103.7-107.2,66.1-180.6
	c-22.5-45.5-69-72.4-67.6-129.2l1.6-9.5L1415,1271.6"/>
<path class="st0" d="M1487.9,1271.6c-0.2,14.7,3.5,29.1,10.8,41.8c31.8,57.3,89.1,111.6,67.6,183.5c-5.9,22.1-23.5,39.2-27.9,61.7
	c37.2,30.9,72.5,65.6,121.9,67.5c17.6-11.2,7.8-61.2,44-38.2l52.8,26.5c-3.9,14.2-15.7,26.9-26.4,36.7
	c-20.1-9.8-39.6-21.5-64.6-20.6c-7.4,7.8-13.7,16.7-13.2,27.9c17.6,2.9,33.7,10.3,48.4,20.5c-6.8,14.7-20.1,24-32.3,35.3l-41.1-14.7
	c-6.8,9.8-21.1,20.1-16.1,30.9c9.3,4,19.6,9.3,26.4,16.2c-18.1,19.6-41.1,32.2-63.1,45.5c-19-62.2-81.7-105.8-76.4-177.7l-2.9-2.9
	c-14.7,16.6-9.8,43.1-8.8,64.6c17.6,45,59.7,79.8,66.1,129.2c-7.4,12.7-24,15.2-36.7,20.5c1.5-89.1-133.6-156.6-47-246.6
	c28.9-44.1,77.3-86.2,60.2-146.9c-17.6-58.6-80-95-79.4-160.7L1487.9,1271.6"/>
<path class="st0" d="M1879,1271.6c0.5,16.5,2,30.8-4.5,47.7c-67,19.1-111.1-51.9-176.1-41.2l7.3,36.8c60.2,2,97.9,59.7,160,57.2
	c-8.8,17.6,3.9,64.1-35.2,45.5c-40.6-9.8-70-45.5-114.5-45.5c-5.4,9.8-2,23.6-2.9,35.3c47,7.4,80.7,47,127.7,54.4
	c-4.4,16.1-8.8,34.2-22,44c-38.2-9.3-68-43.6-108.7-42.6l-7.3,33.7c38.7,1,63.6,35.3,98.4,45.5c0.9,14.2-11.7,27-19.1,39.7
	c-30.8-9.3-54.3-35.7-89.6-33.7c-0.5-13.3,7.3-28.4,4.4-42.6c-39.6,11.8-66.1-25-95.4-47c-0.8-72.2-76.8-119.6-80.8-187.2
	L1879,1271.6"/>
<path class="st0" d="M589.2,1271.6c-0.5-6.5-0.8-11-0.8-11c60.7,23.5,114-20,165.9-42.5c13.2-4,33.7,2.9,39.7-11.8
	c-0.5-11.3,20-24.5,2.9-32.3c-75.9-10.3-126.3,81.3-204.1,39.7l-5.9-11.8c16.2-221.2,141-435.1,348-540.3
	c185-105.7,468.9-96.9,643.1,26.4c92.5,56.8,181.1,150.3,229.1,245.2c45.9,83.2,67,176.6,73.3,276c-80.3,60.7-134.1-57.2-215.9-30.8
	c4.4,12.7,6.9,25.9,16.2,36.7c72.5-0.5,122.3,75.4,198.2,45.5l0.1,11h-358.3c-0.8-14.8,1.8-29.6,7.4-43.3
	c25-57.7,17.1-132.7-10.3-186.5c-8.3-14.2-23-25.4-36.7-33.7c20.1,42.6,44.5,93,32.3,145.4c-1.4,40.4-25.2,79.2-25.5,118.2h-37.8
	l0.2-5.1c14.2-68.5,57.3-141.5,22-214.4c-9.8-29.3-31.8-62.6-61.6-74.9c44.5,50.9,62.1,134.1,36.7,202.7
	c-12.8,27.3-30.5,59.7-32.3,91.7h-36.6c15.2-80.6,76.5-156.9,33.7-243c-11.3-25.4-33.7-51.4-58.7-66.1l-1.5,1.5
	c49.9,48.5,65.1,128.2,38.2,192.3c-12.6,37.6-40.2,75-45.8,115.3h-218.9c-0.8-5.7-2.2-11.4-4-16.9c-25-70.5-75.9-140.9-45.5-223.2
	c8.3-23.5,25-43.6,39.6-64.6c-48.5,25.9-72.9,80.8-71.9,136.6c-2.1,60.6,42.7,112.6,49.1,168.1h-36.8c-2.9-57.4-54.6-102.1-46-166.6
	c2.9-47.5,19-89.1,49.9-124.8c-42.6,17.1-60.2,66.1-71.9,107.2c-20.4,65.9,28.3,125.2,33.2,184.3h-39.6c0.5-13.3-1.8-26.6-6.8-38.9
	c-26.4-68-35.7-160,14.7-220.2c-27.4,7.4-43.6,41.6-52.9,67.5c-30.3,66.4,8,128,9.3,191.6L589.2,1271.6"/>
<path class="st1" d="M1268.2,704.1l79.3,4.4l-1.5,7.4l-58.7,55.8c10.3,25,20.5,49.9,30.8,74.8c44.5-25.9,87.1-58.2,141-61.7
	c-4.9,28.4-26.4,58.3-23.5,86.6c33.3-9.3,63.7-29.8,99.9-27.9c-22.5,41.6-55.3,83.2-57.3,135.1c-49.4-18.6-100.3-41.1-155.6-49.9
	c-118-20.1-231.5,5.8-329,52.9c-8.3-49.4-32.3-92.5-61.6-133.6c17.6-5.9,39.1,3.9,57.3,8.8c15.2,4.4,27.9,14.6,44.1,17.6
	c2.9-29.4-14.2-58.2-26.4-85.2c8.3-6.4,21.5-1.5,30.8,1.5c38.6,14.7,73.4,37.6,108.7,58.7c18.1-21.1,24.9-51.4,32.3-79.3l-60.2-54.3
	V710l79.3-4.4c13.2-24.9,22-51.4,35.2-76.3C1249.1,651.3,1254.5,680.2,1268.2,704.1"/>
<path class="st0" d="M1296.1,864.2l-7.3,7.3c-36.7-3.9-75.4,1-110.2,1.5c-3.9-3.9-11.7-9.8-4.4-14.7l55.8-42.6
	C1253,829,1277.5,846.1,1296.1,864.2"/>
<path class="st1" d="M316.8,884.7c-30.4,23.5-51.9,57.8-45.5,96.9c3.4,5.9,6.8,14.7,14.7,16.1c24.5,0,32.8-26.4,44-42.6
	c13.2-29.4,38.7-61.2,73.4-64.6c29.8-1.9,55.4,5.9,74.9,29.4c29.8,35.8,24.5,93.5,10.3,135.1c-13.3,30.8-33.8,62.1-63.1,82.2
	l-52.9-32.3c28.9-20,59.2-52.9,63.1-89.6c0-13.2-2.9-30.8-19.1-32.3c-33.7,9.8-37.2,50.4-60.2,73.4c-17.6,18.1-39.7,31.8-67.6,27.9
	c-25.9-1.5-48-17.6-63.1-38.2c-28.9-44-14.7-108.7,2.9-142.4c10.8-19.1,23.5-38.2,41.1-52.9C284.4,859.3,301.6,872,316.8,884.7
	 M2234.3,922.9c25.4,41.1,35.3,95.4,22,145.3l-54.3-2.9c7.4-32.8,12.7-73.9-10.3-101.3c-6.8-8.3-19.1-13.2-27.9-8.8
	c-29.8,33.3,2.5,81.3-16.1,118.9c-8.8,17.2-22,37.7-41.1,45.5c-30.9,11.8-69,5.9-92.5-17.6c-46-48-67.5-122.4-38.1-185h57.2
	c-9.8,24.5-16.6,59.2-7.3,88.1c4.9,12.2,10.8,27.9,25,32.3c47,1.7,15.1-65.6,26.4-96.9c4.4-23.5,17.1-47.9,41.1-58.7
	C2162.4,860.2,2213.8,884.7,2234.3,922.9 M794,1015.4c47.5-18.1,112.1-49.4,163-16.1c-10.8,15.2-31.8,23.5-47,36.7
	c-24.9,24.5-55.3,54.3-73.4,85.1c-61.2-12.3-110.2,23.5-161.5,44.1c-19.6,3.9-45.5,5.8-61.7-7.4c48.5-79.8,116.9-153.2,99.8-258.4
	c5.4-9.3,14.7-1.4,20.5,1.5C771.4,930.2,789.5,970.9,794,1015.4 M1760.1,911.2c-19.1,99.8,49.4,170.3,95.4,246.7
	c-52.8,35.3-102.8-19.1-152.7-32.3c-22-3.4-47.9-6.4-69-2.9c-30.3-47-70.9-91-120.4-117.4c2.9-16.1,25.4-17.2,41.1-19.1
	c43.6-4.4,81.7,13.7,117.5,32.3c6.9-16.1,9.8-34.3,14.7-51.4c11.8-28.9,34.8-58.3,64.7-70.5C1757.6,897.5,1762,904.3,1760.1,911.2
	 M1351.9,1002.2c1.5,8.3,9.8,15.7,4.4,25c-28.9-8.8-61.6-4-89.6,7.3c-25,18.6-21.1,56.8-14.7,83.7l7.4,5.9c12.2-3,12.7-18.6,23.5-22
	c18.1,4.4,43.1,10.8,60.2,0c15.2,0.5,14.7,21.5,16.1,32.3c-10.8,56.8-34.7,118.4-92.5,145.4c-24,11.8-54.8,3.9-77.8-4.4
	c-56.8-33.8-88.6-100.8-82.2-161.5c4.4-9.3,11.3-16.7,22.1-10.3c22.9,15.6,47.9-12.2,69,7.3c25.4-11.3,10.3-42.5,10.3-66
	c-20.5-26.4-55.8-22.5-86.6-20.6c-13.7-8.3,1-21.5,4.4-30.8c33.3-47,97-47.9,152.7-41.1C1306.9,959.6,1338.2,971.9,1351.9,1002.2"/>
<path class="st1" d="M1181.5,1069.7v5.9c-16.6-1.5-43.5-18.1-58.7,2.9c-9.8,4.4-11.2-6.9-10.3-13.2c-1.9-6.1,1.5-12.5,7.6-14.4
	c0.4-0.1,0.8-0.2,1.2-0.3C1144.4,1045.3,1170.3,1052.1,1181.5,1069.7 M1356.3,1062.4c-0.5,5.9,1,12.7-5.9,16.2
	c-18.6-7.3-44.6-17.6-63.1-2.9c-10.8-23,19.1-18.1,29.4-25C1331.8,1050.1,1349.4,1049.7,1356.3,1062.4"/>
<path class="st0" d="M1262.3,1156.4c-8.8,18.6-37.2,6.9-52.9,10.3c-5.3-2-2-7.8-2.9-11.7C1222.2,1144.1,1250.1,1142.7,1262.3,1156.4
	 M1285.8,1197.5c-11.7,17.6-29.3,39.6-52.8,38.2c-26.5,1.9-32.3-19.6-51.4-32.3l-1.4-8.9C1215.4,1199.9,1254,1193.1,1285.8,1197.5"
	/>
<path class="st1" d="M371.1,1426.5c29.7-0.2,58.1,1,88.7,0.3l-68.1,57c6.6,24,12.2,51.5,20.5,83.7l-67.6-47
	c-28.4,13-45.5,28.9-74.8,44l23.5-80.8c-22.3-18.2-47.2-35.6-68.3-54.2c30.7-0.8,57.6,0.4,87.4-0.2c13.7-25.7,19.8-55.1,32.3-80.8
	L371.1,1426.5 M719,1812.7c5.9,14.2,14.4,25.4,18.1,46.7c-15.6,9.8-35.4,17.9-53.3,26.7c-4.4-32.3-32.8-63.7-64.6-72
	c-26.4-6.6-55.3,5.9-74.8,29.4c-16.2,19-21.1,46.5-16.2,70.5c12.7,33.2,48,58.3,83.7,58.3l10.3,0.3c-7.4,18.3-16.2,36-26.4,53
	c-59.2-2-118.9-36.8-141-94c-19.1-46.4-10.7-106.7,19.1-145.4c36.2-46,94-58.7,149.8-47C661.3,1749.5,696.5,1777.9,719,1812.7
	 M1859.9,1781.9l3.7,3.6l-88.1,82l29.4,35.4c24.9-19.6,51.9-40.4,78.6-65.3c13.7,11.5,24.8,24.9,37.7,40.2
	c-26.4,25.2-53.8,42.3-76.8,66.3c9.8,12.3,17.3,26.2,32.3,40.9l95-78.3l40.6,41.9c-53.8,51.1-112.5,103.8-168.3,144.6l-165.9-214.4
	c52.9-44.1,97.4-84.2,143.9-130.7C1835.9,1757.4,1846.2,1769.6,1859.9,1781.9 M926.1,1962.5c29.8,38.2,30.3,97.4,11.7,140.9
	c-20.8,44.3-60.7,72.5-104.2,82.2c-52.8,8.3-102.7-8.8-140.9-45.5c-33.7-37.2-52.4-90.6-35.3-142.4c15.2-56.3,70-97.4,126.3-104.3
	C841.9,1890,895.7,1916.9,926.1,1962.5"/>
<path class="st0" d="M864.4,1997.7c16.6,38.7-2.5,76.8-29.4,104.2c-17.1,13.7-39.5,22.3-62,14c-14.2-6.9-31.7-19.4-35.6-34.6
	c-10.8-39.1,7.1-75.8,34.5-102.7c16.6-13.7,40.6-21.5,61.6-11.8C846.3,1970.7,860.5,1985,864.4,1997.7"/>
<path class="st1" d="M1448.8,2059.8c-41.2,5.9-80.5,10.8-119.7,17.2c4,19.3,2.2,32.2,5.2,47c36.7-0.7,68.8-7.2,103.1-11.7l10,62.8
	c-34.9,6.5-70,11.6-105.3,15.2c1,28.4,4.7,63.1,4.3,94.4c-28.9,4.4-60,7.6-89.9,5.6l-17.6-267.7l-0.2-5.6
	c65.9-6.3,131.6-14.7,196.9-25.2C1438.3,2011.9,1444.4,2035.1,1448.8,2059.8 M1673.4,1939.5l2.5,4.6l-107.5,53.9l18.2,42.3
	c32.8-12.5,61.1-24.2,93.7-40.6c9.9,14.9,16.8,30.9,24.9,49.1c-29.6,15.8-60.2,28-92.4,42.1c6,14.5,9,25,19.5,48.3l113.2-48.5
	l27.2,51.6c-66,33.9-137.1,68-202.2,91.5l-99.1-252.3c63.1-27.5,117.1-53.5,174.8-85C1657.3,1909.3,1663.7,1923.9,1673.4,1939.5
	 M1198.5,2090.2c-40.9-6.9-80-14.2-119.2-20.1c-2.2,19.6-7.7,31.4-9.4,46.3c35.2,10.5,67.7,14,101.7,20.3l-9.6,62.9
	c-35.2-4.5-70.2-10.3-104.9-17.6c-7.7,27.3-14.6,61.6-24.5,91.3c-28.9-4.6-59.6-11.1-87.4-22.1l64.6-260.3l1.5-5.4
	c65.1,14.1,131.8,26.4,195.3,35.9C1203,2041.4,1201.8,2065.4,1198.5,2090.2 M2150,1426.9c29.6-0.1,56,0.7,88.7,0.3l-68.1,57
	c6.6,23.9,12.2,51.5,20.5,83.7l-67.5-47c-28.5,12.9-45.5,28.9-74.9,44l23.5-80.7c-22.3-18.2-47.3-35.6-68.2-54.2
	c30.7-0.8,57.6,0.4,87.3-0.2c12-26.7,20.6-52.4,32.4-80.8L2150,1426.9"/>
<path class="st2" d="M2461,1250c0,689.9-551.3,1249.8-1230.5,1249.8S0,1939.9,0,1250C0,560.1,551.3,0.2,1230.5,0.2
	S2461,560.1,2461,1250z"/>
<path class="st0" d="M2030.1,2252.5c38.3,0,71.1,29.8,71.1,70.1c0,40.7-32.8,70.5-71.1,70.5c-38.7,0-71.4-29.7-71.4-70.5
	C1958.6,2282.3,1991.4,2252.5,2030.1,2252.5L2030.1,2252.5z M2030.1,2263.9c-32.6,0-57.8,25.2-57.8,58.7c0,34.3,25.2,59.1,57.8,59.1
	c32.2,0,57.4-24.8,57.4-59.1C2087.5,2289.1,2062.3,2263.9,2030.1,2263.9z M2015.1,2363.4h-12.5v-81.1h31.1
	c19.3,0,28.8,7.2,28.8,23.1c0,14.6-9.1,20.9-21.2,22.4l23.1,35.6h-13.6l-21.6-35.3h-14L2015.1,2363.4L2015.1,2363.4z M2015.1,2317.9
	h14.8c15.2,0,20.1-4.4,20.1-13.3c0-7.8-3.8-12.1-18-12.1h-16.9V2317.9z"/>
</svg>
