<?xml version="1.0" encoding="utf-8"?>
<!-- Generator: Adobe Illustrator 21.0.2, SVG Export Plug-In . SVG Version: 6.00 Build 0)  -->
<svg version="1.1" id="Layer_1" xmlns="http://www.w3.org/2000/svg" xmlns:xlink="http://www.w3.org/1999/xlink" x="0px" y="0px"
	 viewBox="0 0 2500 326" style="enable-background:new 0 0 2500 326;" xml:space="preserve">
<style type="text/css">
	.st0{fill:#DDDDDD;}
</style>
<g id="TESLA">
	<path class="st0" d="M2135.8,129.4v196.4h62.8v-131h229.6v131h62.8V129.4H2135.8 M2191.4,65.7h242.2c34.1-6.3,58.3-36.8,65.5-65.5
		h-373.2C2133.1,28.9,2158.2,58.5,2191.4,65.7 M1944.7,325.8c31.4-13.5,48.4-36.8,55.6-63.7h-282.6V1.1h-63.7v324.7H1944.7
		 M1183.2,64.8h224.3c34.1-9.9,61.9-35.9,69.1-63.7h-355.2v192h290.6v67.3h-227.8c-35.9,9.9-66.4,34.1-81.6,65.5h372.3V129.4h-290.6
		L1183.2,64.8 M630.6,65.7h242.2c34.1-6.3,59.2-36.8,65.5-65.5H564.2C571.4,28.9,596.5,58.5,630.6,65.7 M630.6,193.9h242.2
		c34.1-6.3,59.2-36.8,65.5-65.5H564.2C571.4,157.2,596.5,186.8,630.6,193.9 M630.6,325.8h242.2c34.1-6.3,59.2-36.8,65.5-65.5H564.2
		C571.4,289,596.5,319.5,630.6,325.8"/>
	<g>
		<path class="st0" d="M0,1.1c7.2,28.7,32.3,57.4,65.5,64.6h102.3l5.4,1.8v257.4h63.7V67.5l5.4-1.8h102.3
			c34.1-9,58.3-35.9,65.5-64.6V0.2L0,1.1"/>
	</g>
</g>
</svg>
