<?xml version="1.0" encoding="utf-8"?>
<!-- Generator: Adobe Illustrator 21.0.2, SVG Export Plug-In . SVG Version: 6.00 Build 0)  -->
<svg version="1.1" id="Layer_1" xmlns="http://www.w3.org/2000/svg" xmlns:xlink="http://www.w3.org/1999/xlink" x="0px" y="0px"
	 viewBox="0 0 36 36" style="enable-background:new 0 0 36 36;" xml:space="preserve">
<style type="text/css">
	.st0{fill-opacity:0;}
	.st1{fill:#66BB66;}
</style>
<rect class="st0" width="36" height="36"/>
<title>check-circle-line</title>
<path class="st1" d="M18,6C11.4,6,6,11.4,6,18s5.4,12,12,12s12-5.4,12-12S24.6,6,18,6z M18,28c-5.5,0-10-4.5-10-10S12.5,8,18,8
	s10,4.5,10,10S23.5,28,18,28z"/>
<path class="st1" d="M16.3,23.7l-5-5c-0.4-0.4-0.3-1.1,0.1-1.4c0.4-0.3,0.9-0.3,1.3,0l3.6,3.6l6.8-6.8c0.4-0.4,1.1-0.3,1.4,0.1
	c0.3,0.4,0.3,0.9,0,1.3L16.3,23.7z"/>
</svg>
