<?xml version="1.0" encoding="utf-8"?>
<!-- Generator: Adobe Illustrator 21.0.2, SVG Export Plug-In . SVG Version: 6.00 Build 0)  -->
<svg version="1.1" id="Layer_1" xmlns="http://www.w3.org/2000/svg" xmlns:xlink="http://www.w3.org/1999/xlink" x="0px" y="0px"
	 viewBox="0 0 14 14" style="enable-background:new 0 0 14 14;" xml:space="preserve">
<style type="text/css">
	.st0{fill:#828282;}
</style>
<title>search-line</title>
<g>
	<path class="st0" d="M5.8,1.4c2.4,0,4.4,2,4.4,4.4c0,2.4-2,4.4-4.4,4.4c-2.4,0-4.4-2-4.4-4.4c0,0,0,0,0,0C1.4,3.4,3.4,1.4,5.8,1.4
		 M5.8,0.5c-2.9,0-5.3,2.4-5.3,5.3S2.9,11,5.8,11S11,8.7,11,5.8l0,0C11,2.9,8.7,0.5,5.8,0.5z"/>
	<path class="st0" d="M13.3,12.8l-3-3l-0.6,0.6l3,3c0.2,0.2,0.4,0.2,0.6,0C13.5,13.2,13.5,12.9,13.3,12.8z"/>
</g>
</svg>
