<?xml version="1.0" encoding="utf-8"?>
<!-- Generator: Adobe Illustrator 21.0.2, SVG Export Plug-In . SVG Version: 6.00 Build 0)  -->
<svg version="1.1" id="Layer_1" xmlns="http://www.w3.org/2000/svg" xmlns:xlink="http://www.w3.org/1999/xlink" x="0px" y="0px"
	 viewBox="0 0 36 36" style="enable-background:new 0 0 36 36;" xml:space="preserve">
<style type="text/css">
	.st0{fill:#EE4444;}
</style>
<title>exclamation-circle-line</title>
<path class="st0" d="M18,6C11.4,6,6,11.4,6,18s5.4,12,12,12s12-5.4,12-12S24.6,6,18,6z M18,28c-5.5,0-10-4.5-10-10S12.5,8,18,8
	s10,4.5,10,10S23.5,28,18,28z"/>
<path class="st0" d="M18,20.1c-0.7,0-1.3-0.6-1.3-1.3v-6c0-0.7,0.6-1.3,1.3-1.3c0.7,0,1.3,0.6,1.3,1.3v6
	C19.3,19.5,18.7,20.1,18,20.1L18,20.1z"/>
<circle class="st0" cx="18" cy="23" r="1.5"/>
</svg>
