<svg width="32" height="32" viewBox="0 0 32 32" fill="none" xmlns="http://www.w3.org/2000/svg">
<path d="M9.11111 0H0.666667C0.489856 0 0.320286 0.0702378 0.195262 0.195262C0.0702378 0.320286 0 0.489856 0 0.666667V11.3333C0 11.5101 0.0702378 11.6797 0.195262 11.8047C0.320286 11.9298 0.489856 12 0.666667 12H9.11111C9.28792 12 9.45749 11.9298 9.58252 11.8047C9.70754 11.6797 9.77778 11.5101 9.77778 11.3333V0.666667C9.77778 0.489856 9.70754 0.320286 9.58252 0.195262C9.45749 0.0702378 9.28792 0 9.11111 0ZM8.88889 11.1111H0.888889V0.888889H8.88889V11.1111Z" transform="translate(8 6.22217) scale(2)" fill="white"/>
<path d="M9.77778 0.666667C9.77778 0.489856 9.70754 0.320286 9.58252 0.195262C9.45749 0.0702379 9.28792 0 9.11111 0H0.666667C0.489856 0 0.320286 0.0702379 0.195262 0.195262C0.0702378 0.320286 0 0.489856 0 0.666667V11.3333C0 11.5101 0.0702378 11.6797 0.195262 11.8047C0.320286 11.9298 0.489856 12 0.666667 12H0.888889V0.888889H9.77778V0.666667Z" transform="translate(3.55566 1.77783) scale(2)" fill="white"/>
</svg>
